<?xml version="1.0" encoding="UTF-8"?>
<svg width="500" height="500" viewBox="0 0 500 500" xmlns="http://www.w3.org/2000/svg">
 <rect width="500" height="500" fill="#CBE9FF"/>
 <path d="m161.38 197.32c-6.725 0-12.177 5.446-12.177 12.164s5.452 12.164 12.177 12.164h46.94c1.628 0 2.95 1.319 2.95 2.95v11.494h-61.272v89.423h69.508c8.895 0 16.106-7.204 16.106-16.089v-53.448h0.012v-31.38c0-15.063-12.221-27.278-27.304-27.278h-46.94zm13.021 63.148h36.808v40.67h-36.808v-40.67z" clip-rule="evenodd" fill="#143349" fill-rule="evenodd"/>
 <path d="m287.73 286.62v-128.17h24.403v35.341l34.711-31.921c4.957-4.56 12.676-4.241 17.24 0.711 4.564 4.953 4.245 12.663-0.712 17.223l-36.196 33.287 19.405 16.772c12.952 11.194 20.396 27.459 20.396 44.568v12.188h-24.403v-12.188c0-10.032-4.365-19.569-11.96-26.133l-18.481-15.973v54.294h-24.403z" clip-rule="evenodd" fill="#143349" fill-rule="evenodd"/>
 <path d="m111.04 142.91c0-12.655 10.27-22.914 22.939-22.914h249.09c12.669 0 22.939 10.259 22.939 22.914v198.33c0 12.655-10.27 22.914-22.939 22.914h-145.68l-88.432 43.136c-17.508 8.54-37.919-4.194-37.919-23.657v-43.463h7e-3v-0.399h24.403v6e-3h246.16v-195.41h-220.14v-3e-3h-50.425v-1.46z" fill="#143349"/>
 <path d="m111.04 183.1h-48.834c-6.7387 0-12.201-5.456-12.201-12.188 0-6.731 5.4627-12.188 12.201-12.188h212.15v0.214h0.275v142.27h80.542c6.739 0 12.201 5.457 12.201 12.189 0 6.731-5.462 12.188-12.201 12.188h-104.94v-142.48h-114.78v142.05h-24.403v-142.05z" fill="#143349"/>
</svg>
